PathFileType	4	(X/Y/Z)	./resultDataOpenSim/trcMotMarkerGrf/sub09/qtm-01-07.trc
DataRate	CameraRate	NumFrames	NumMarkers	Units	OrigDataRate	OrigDataStartFrame	OrigNumFrames
250.000000	250.000000	8	24	m	250.000000	237	472
Frame#	Time	L.Toe.Tip			R.Toe.Tip			L.Ankle.Lat			R.Ankle.Lat			L.Ankle.Med			R.Ankle.Med			L.Heel			R.Heel			L.Knee.Lat			R.Knee.Lat			L.Knee.Med			R.Knee.Med			L.Thigh.Upper			R.Thigh.Upper			L.ASIS			R.ASIS			V.Sacral			L.Acromium			R.Acromium			C7			L.Elbow			R.Elbow			L.Wrist.Lat			R.Wrist.Lat
		X1	Y1	Z1	X2	Y2	Z2	X3	Y3	Z3	X4	Y4	Z4	X5	Y5	Z5	X6	Y6	Z6	X7	Y7	Z7	X8	Y8	Z8	X9	Y9	Z9	X10	Y10	Z10	X11	Y11	Z11	X12	Y12	Z12	X13	Y13	Z13	X14	Y14	Z14	X15	Y15	Z15	X16	Y16	Z16	X17	Y17	Z17	X18	Y18	Z18	X19	Y19	Z19	X20	Y20	Z20	X21	Y21	Z21	X22	Y22	Z22	X23	Y23	Z23	X24	Y24	Z24

237	0.944	0.11364644	0.039631965	0.01642806	0.20429382	0.0945193	0.14467	-0.030716655	0.073617881	-0.029176527	0.054723411	0.15751038	0.15799967	-0.014223327	0.092637083	0.068325167	0.10053451	0.17584719	0.06406615	-0.1071747	0.042651754	0.012158052	0.00050580932	0.14184921	0.097241885	0.0892108	0.47391585	-0.080465107	0.26489703	0.55247957	0.20089589	0.074413994	0.4763963	0.046427729	0.27434227	0.53706887	0.070721365	0.079589959	0.8991883	-0.13803168	0.07082842	0.90592358	0.23238154	0.15995562	0.9864972	-0.074233818	0.14828835	0.99429272	0.16318492	-0.025550682	1.045363	0.044660333	0.15556533	1.4390874	-0.12165291	0.11067134	1.4521884	0.2046388	0.067480056	1.495204	0.034316912	0.027352848	1.0918466	-0.19886755	-0.037471504	1.1193935	0.29005194	0.21770643	0.89972928	-0.1936548	0.09630492	0.88221953	0.30475848
238	0.948	0.11380834	0.039617398	0.016388242	0.22406852	0.093602008	0.1444438	-0.030642703	0.073672765	-0.029161083	0.070334965	0.15393595	0.15830037	-0.014344265	0.092844416	0.068455785	0.11809826	0.17223409	0.063773948	-0.10732117	0.042873893	0.012471824	0.019352122	0.13568739	0.09707158	0.090173045	0.47376734	-0.080638541	0.2733573	0.55379387	0.20061171	0.075469947	0.47638508	0.046341002	0.28187161	0.53799303	0.070862806	0.083771611	0.89894861	-0.13738273	0.077231717	0.9060187	0.23262613	0.16572292	0.98615216	-0.074359758	0.15447915	0.99435481	0.16312484	-0.019509421	1.0452442	0.044854736	0.16180533	1.4390331	-0.12167445	0.11685055	1.4520426	0.20461923	0.073620927	1.4950937	0.034321652	0.034031358	1.0914017	-0.19883472	-0.031775806	1.1195511	0.28991121	0.22593674	0.90070581	-0.1927179	0.10135102	0.88221591	0.30526938
239	0.952	0.11389225	0.039549386	0.016391881	0.24385896	0.092697496	0.14411258	-0.030615808	0.073748606	-0.029129128	0.086802198	0.15016295	0.15863761	-0.014275816	0.093047548	0.068411339	0.13572871	0.16868692	0.063512569	-0.10746719	0.043122091	0.012712016	0.038507186	0.12966133	0.096911408	0.091114067	0.47362444	-0.080835518	0.28199967	0.55527189	0.20049822	0.076828353	0.47630756	0.046178568	0.2894968	0.53882001	0.070791643	0.088453951	0.898677	-0.13689494	0.083625106	0.9060089	0.23286978	0.17148477	0.98574307	-0.074492522	0.16067359	0.99431306	0.1630652	-0.013474783	1.0450572	0.04507432	0.1680553	1.438894	-0.12170947	0.12306128	1.4518151	0.20461055	0.079778448	1.4949046	0.034325288	0.040695891	1.090885	-0.19881671	-0.026096154	1.1196553	0.28981092	0.23415834	0.90161927	-0.19177675	0.10643434	0.88212294	0.30577656
240	0.956	0.11387521	0.039436702	0.016452681	0.26361806	0.091844669	0.1436763	-0.030720173	0.073865512	-0.029013302	0.10538829	0.14584991	0.15893937	-0.014041136	0.093215089	0.068265577	0.15341573	0.16521375	0.063305933	-0.10757767	0.04338327	0.01284715	0.05768896	0.12377623	0.096789751	0.092031922	0.47349516	-0.081053432	0.29026398	0.55703814	0.20071555	0.078321709	0.47613243	0.046023255	0.29711705	0.53950771	0.070587214	0.093599231	0.89838925	-0.13654743	0.090019245	0.90590007	0.23311318	0.17724334	0.98527227	-0.07462096	0.16687863	0.99417004	0.16300321	-0.0074755221	1.0448094	0.045331907	0.17427811	1.4386774	-0.12173258	0.12929186	1.4515115	0.20461296	0.08594942	1.4946428	0.034331711	0.047353046	1.0902918	-0.19881421	-0.020399045	1.119736	0.28976665	0.24236801	0.90246627	-0.19083292	0.11155976	0.88193681	0.30627888
241	0.96	0.11381156	0.039325168	0.016516187	0.28331447	0.091067242	0.143138	-0.030975258	0.074022894	-0.02879113	0.12674267	0.14072239	0.15896828	-0.013759932	0.09333917	0.068120781	0.17114623	0.16182887	0.063160345	-0.10763818	0.043645587	0.012895892	0.076772776	0.11804105	0.096714526	0.09293926	0.47338884	-0.081289822	0.29751218	0.558924	0.20127138	0.079687024	0.47591528	0.045958459	0.30465465	0.54002348	0.070314957	0.098949728	0.89808988	-0.13627053	0.096427136	0.90569973	0.23335374	0.18300071	0.98474613	-0.074748587	0.17310607	0.9939333	0.16294301	-0.0015874533	1.0445194	0.045656493	0.18046792	1.4383879	-0.1217314	0.13553181	1.4511376	0.20462392	0.092132084	1.4943255	0.034345437	0.054017225	1.0896189	-0.19881337	-0.014666653	1.1197872	0.28978536	0.25055627	0.90324449	-0.18989573	0.11673113	0.88166552	0.30677657
242	0.964	0.11376292	0.039247676	0.016525958	0.30297228	0.090356004	0.14249535	-0.031264708	0.074199757	-0.02854808	0.14998165	0.13489988	0.15844449	-0.013530557	0.093445293	0.068036385	0.18890645	0.15854223	0.063055762	-0.10765899	0.043918401	0.012918614	0.095826201	0.11246589	0.096671924	0.093851336	0.47330645	-0.081540696	0.30402792	0.56056034	0.20191258	0.080686709	0.4757955	0.046025963	0.31206659	0.5403646	0.070042928	0.10429245	0.89776467	-0.1360304	0.10285207	0.90541543	0.23358924	0.18875901	0.98417325	-0.074885023	0.17936124	0.99360896	0.16288972	0.0041277836	1.0442037	0.046050097	0.18664728	1.4380273	-0.12172403	0.14178072	1.4506981	0.2046409	0.098326612	1.4939638	0.034363108	0.060697289	1.0888679	-0.19879995	-0.0089334945	1.1197606	0.28984677	0.25871424	0.90395336	-0.18897425	0.12195425	0.88132052	0.30727386
243	0.968	0.11374335	0.0392023	0.016481548	0.32264217	0.089701402	0.14175143	-0.031432582	0.074377026	-0.028404402	0.17338266	0.12900406	0.1574364	-0.01335406	0.093560944	0.068004309	0.20667807	0.15536085	0.062971816	-0.10766718	0.044219003	0.012999675	0.1149671	0.10705389	0.096638273	0.094757917	0.47324064	-0.081787996	0.31061182	0.56165334	0.20233957	0.081299964	0.47584261	0.046188628	0.31936075	0.54054199	0.069869436	0.1095399	0.89739459	-0.13582599	0.10928413	0.9050497	0.23381973	0.19452996	0.9835617	-0.075030292	0.18564205	0.99320017	0.16284538	0.0098360699	1.0438229	0.046383486	0.19284251	1.4375979	-0.12173572	0.14804105	1.4501961	0.20466198	0.10452862	1.4935491	0.034380797	0.067390173	1.0880466	-0.19877459	-0.0032554365	1.119611	0.28990233	0.2668395	0.90459522	-0.18806792	0.12722904	0.88090731	0.30777685
244	0.972	0.11372828	0.039171673	0.016416719	0.34234673	0.08912152	0.14092753	-0.031438361	0.074556539	-0.028391748	0.1957491	0.12385021	0.15649328	-0.013168945	0.093698105	0.067980518	0.22444686	0.1522922	0.062898891	-0.10769519	0.044549074	0.013221686	0.13426295	0.10180155	0.096585307	0.095607828	0.47318055	-0.081981678	0.31763848	0.56219384	0.20247315	0.08188019	0.47595568	0.046307067	0.32657109	0.54055597	0.069859761	0.11467836	0.89697065	-0.13566835	0.11571248	0.90459797	0.23404502	0.20032312	0.98291423	-0.075177278	0.1919454	0.99270986	0.16280836	0.016179437	1.0432183	0.046340618	0.1990632	1.4371022	-0.12176861	0.15430898	1.4496322	0.20468763	0.11073385	1.4930602	0.034402232	0.074084791	1.0871661	-0.19875015	0.0023522125	1.1193403	0.28990844	0.27493849	0.90517545	-0.1871664	0.13254534	0.88042743	0.30829078
